# xmcd
#
# Track frame offsets:
# 183
# 22558
# 42863
# 63805
#
# Disc length: 1023 seconds
#
#
# Revision: 2
# Processed by: cddbd v1.5.1PL0 Copyright (c) Steve Scherf et al.
# Submitted via: FreeRIP 2.91 
#
DISCID=1f03fd04
DTITLE=Bon Jovi - Always
DYEAR=1994
DGENRE=Hard Rock
TTITLE0=Always
TTITLE1=I Wish Everyday Could Be Like Christmas
TTITLE2=Living In Sin
TTITLE3=Please Come Home For Christmas
EXTD=
EXTT0=
EXTT1=
EXTT2=
EXTT3=
PLAYORDER=
